<mxfile host="app.diagrams.net" modified="2021-06-28T20:04:18.655Z" agent="5.0 (Windows NT 10.0; Win64; x64) AppleWebKit/537.36 (KHTML, like Gecko) Chrome/91.0.4472.114 Safari/537.36" etag="XZ4VtpprqbBtTIUGesNw" version="14.8.2" type="github">
  <diagram id="TyHwFWfW4JgvhnU0NJCB" name="Page-1">
    <mxGraphModel dx="1221" dy="644" grid="1" gridSize="10" guides="1" tooltips="1" connect="1" arrows="1" fold="1" page="1" pageScale="1" pageWidth="1654" pageHeight="1169" math="0" shadow="0">
      <root>
        <mxCell id="0" />
        <mxCell id="1" parent="0" />
        <mxCell id="OVCkLsnIttcMwnBDrOLc-8" value="" style="edgeStyle=orthogonalEdgeStyle;rounded=0;orthogonalLoop=1;jettySize=auto;html=1;" edge="1" parent="1" source="OVCkLsnIttcMwnBDrOLc-1" target="OVCkLsnIttcMwnBDrOLc-2">
          <mxGeometry relative="1" as="geometry">
            <Array as="points">
              <mxPoint x="160" y="85" />
              <mxPoint x="160" y="45" />
            </Array>
          </mxGeometry>
        </mxCell>
        <mxCell id="OVCkLsnIttcMwnBDrOLc-1" value="Покупатель" style="shape=umlActor;verticalLabelPosition=bottom;verticalAlign=top;html=1;" vertex="1" parent="1">
          <mxGeometry x="60" y="60" width="30" height="60" as="geometry" />
        </mxCell>
        <object label="login (вход)" id="OVCkLsnIttcMwnBDrOLc-2">
          <mxCell style="ellipse;whiteSpace=wrap;html=1;" vertex="1" parent="1">
            <mxGeometry x="200" y="20" width="110" height="50" as="geometry" />
          </mxCell>
        </object>
      </root>
    </mxGraphModel>
  </diagram>
</mxfile>
